<?xml version="1.0" encoding="UTF-8" standalone="no"?>
<svg width="19px" height="15px" viewBox="0 0 19 15" version="1.1" xmlns="http://www.w3.org/2000/svg" xmlns:xlink="http://www.w3.org/1999/xlink" xmlns:sketch="http://www.bohemiancoding.com/sketch/ns">
    <!-- Generator: Sketch 3.3.3 (12072) - http://www.bohemiancoding.com/sketch -->
    <title>notification-counts__img</title>
    <desc>Created with Sketch.</desc>
    <defs></defs>
    <g id="Page-1" stroke="none" stroke-width="1" fill="none" fill-rule="evenodd" sketch:type="MSPage">
        <g id="notification-counts__img" sketch:type="MSLayerGroup" transform="translate(1.000000, 0.000000)" stroke="#FFFFFF">
            <path d="M0.425,12.7553764 L16.7875,12.7553763" id="Line" stroke-linecap="square" sketch:type="MSShapeGroup"></path>
            <path d="M0,12.9569892 C0,12.9569892 2.4362793,12.0741452 2.9934082,10.5405877 C4.21435547,5.85919124 4.53417969,1.66666667 8.5,1.66666667 C12.4658203,1.66666667 12.9228516,5.69892473 13.9724121,10.5405877 C14.3916016,12.118445 17,12.9569892 17,12.9569892" id="Path-7" sketch:type="MSShapeGroup"></path>
            <path d="M5.95,12.7492728 C5.95,12.7492728 6.33417433,14.4060505 8.6377651,14.4159101 C10.9413559,14.4257696 11.0240601,12.789454 11.0240601,12.789454" id="Path-8" sketch:type="MSShapeGroup"></path>
            <path d="M7.75292969,1.68111165 C7.75292969,1.68111165 8.21349611,0.807007043 8.65875244,0.829874674 C9.10400877,0.852742306 9.48405762,1.77001953 9.48405762,1.77001953 L7.75292969,1.68111165 Z" id="Path-9" sketch:type="MSShapeGroup"></path>
        </g>
    </g>
</svg>